<?xml version="1.0" encoding="UTF-8" standalone="no"?>
<!DOCTYPE svg PUBLIC "-//W3C//DTD SVG 1.1//EN"
 "http://www.w3.org/Graphics/SVG/1.1/DTD/svg11.dtd">
<!-- Generated by graphviz version 2.43.20190912.0211 (20190912.0211)
 -->
<!-- Title: mod_n_counter Pages: 1 -->
<svg width="657pt" height="328pt"
 viewBox="0.00 0.00 656.93 328.00" xmlns="http://www.w3.org/2000/svg" xmlns:xlink="http://www.w3.org/1999/xlink">
<g id="graph0" class="graph" transform="scale(1 1) rotate(0) translate(4 324)">
<title>mod_n_counter</title>
<polygon fill="white" stroke="transparent" points="-4,4 -4,-324 652.93,-324 652.93,4 -4,4"/>
<text text-anchor="middle" x="324.47" y="-7.8" font-family="Times,serif" font-size="14.00">mod_n_counter</text>
<!-- n5 -->
<g id="node1" class="node">
<title>n5</title>
<polygon fill="none" stroke="black" points="199.14,-177.54 199.14,-192.46 179.73,-203 152.29,-203 132.88,-192.46 132.88,-177.54 152.29,-167 179.73,-167 199.14,-177.54"/>
<text text-anchor="middle" x="166.01" y="-181.3" font-family="Times,serif" font-size="14.00">count</text>
</g>
<!-- c19 -->
<g id="node9" class="node">
<title>c19</title>
<polygon fill="none" stroke="black" points="249.01,-122 249.01,-168 344.01,-168 344.01,-122 249.01,-122"/>
<text text-anchor="middle" x="262.01" y="-152.8" font-family="Times,serif" font-size="14.00">A</text>
<polyline fill="none" stroke="black" points="249.01,-145 275.01,-145 "/>
<text text-anchor="middle" x="262.01" y="-129.8" font-family="Times,serif" font-size="14.00">B</text>
<polyline fill="none" stroke="black" points="275.01,-122 275.01,-168 "/>
<text text-anchor="middle" x="296.51" y="-148.8" font-family="Times,serif" font-size="14.00">$4</text>
<text text-anchor="middle" x="296.51" y="-133.8" font-family="Times,serif" font-size="14.00">$add</text>
<polyline fill="none" stroke="black" points="318.01,-122 318.01,-168 "/>
<text text-anchor="middle" x="331.01" y="-141.3" font-family="Times,serif" font-size="14.00">Y</text>
</g>
<!-- n5&#45;&gt;c19 -->
<g id="edge6" class="edge">
<title>n5:e&#45;&gt;c19:w</title>
<path fill="none" stroke="black" stroke-width="3" d="M200.01,-185C221.18,-185 223.65,-165.07 238.98,-158.84"/>
<polygon fill="black" stroke="black" stroke-width="3" points="239.81,-162.24 249.01,-157 238.55,-155.36 239.81,-162.24"/>
</g>
<!-- c20 -->
<g id="node10" class="node">
<title>c20</title>
<polygon fill="none" stroke="black" points="255.01,-57 255.01,-103 338.01,-103 338.01,-57 255.01,-57"/>
<text text-anchor="middle" x="268.01" y="-87.8" font-family="Times,serif" font-size="14.00">A</text>
<polyline fill="none" stroke="black" points="255.01,-80 281.01,-80 "/>
<text text-anchor="middle" x="268.01" y="-64.8" font-family="Times,serif" font-size="14.00">B</text>
<polyline fill="none" stroke="black" points="281.01,-57 281.01,-103 "/>
<text text-anchor="middle" x="296.51" y="-83.8" font-family="Times,serif" font-size="14.00">$3</text>
<text text-anchor="middle" x="296.51" y="-68.8" font-family="Times,serif" font-size="14.00">$lt</text>
<polyline fill="none" stroke="black" points="312.01,-57 312.01,-103 "/>
<text text-anchor="middle" x="325.01" y="-76.3" font-family="Times,serif" font-size="14.00">Y</text>
</g>
<!-- n5&#45;&gt;c20 -->
<g id="edge7" class="edge">
<title>n5:e&#45;&gt;c20:w</title>
<path fill="none" stroke="black" stroke-width="3" d="M200.01,-185C243.79,-185 212.09,-106.63 243.49,-93.77"/>
<polygon fill="black" stroke="black" stroke-width="3" points="244.28,-97.19 253.51,-92 243.06,-90.3 244.28,-97.19"/>
</g>
<!-- n6 -->
<g id="node2" class="node">
<title>n6</title>
<polygon fill="none" stroke="black" points="83.02,-87.54 83.02,-102.46 58.7,-113 24.31,-113 -0.01,-102.46 -0.01,-87.54 24.31,-77 58.7,-77 83.02,-87.54"/>
<text text-anchor="middle" x="41.51" y="-91.3" font-family="Times,serif" font-size="14.00">modulo</text>
</g>
<!-- c21 -->
<g id="node12" class="node">
<title>c21</title>
<polygon fill="none" stroke="black" points="119.01,-45 119.01,-91 213.01,-91 213.01,-45 119.01,-45"/>
<text text-anchor="middle" x="132.01" y="-75.8" font-family="Times,serif" font-size="14.00">A</text>
<polyline fill="none" stroke="black" points="119.01,-68 145.01,-68 "/>
<text text-anchor="middle" x="132.01" y="-52.8" font-family="Times,serif" font-size="14.00">B</text>
<polyline fill="none" stroke="black" points="145.01,-45 145.01,-91 "/>
<text text-anchor="middle" x="166.01" y="-71.8" font-family="Times,serif" font-size="14.00">$2</text>
<text text-anchor="middle" x="166.01" y="-56.8" font-family="Times,serif" font-size="14.00">$sub</text>
<polyline fill="none" stroke="black" points="187.01,-45 187.01,-91 "/>
<text text-anchor="middle" x="200.01" y="-64.3" font-family="Times,serif" font-size="14.00">Y</text>
</g>
<!-- n6&#45;&gt;c21 -->
<g id="edge8" class="edge">
<title>n6:e&#45;&gt;c21:w</title>
<path fill="none" stroke="black" stroke-width="3" d="M83.01,-95C96.28,-95 100.17,-86.21 109.05,-82.09"/>
<polygon fill="black" stroke="black" stroke-width="3" points="109.94,-85.47 119.01,-80 108.51,-78.62 109.94,-85.47"/>
</g>
<!-- n7 -->
<g id="node3" class="node">
<title>n7</title>
<polygon fill="none" stroke="black" points="457.01,-202.54 457.01,-217.46 441.2,-228 418.83,-228 403.01,-217.46 403.01,-202.54 418.83,-192 441.2,-192 457.01,-202.54"/>
<text text-anchor="middle" x="430.01" y="-206.3" font-family="Times,serif" font-size="14.00">clk</text>
</g>
<!-- c13 -->
<g id="node5" class="node">
<title>c13</title>
<polygon fill="none" stroke="black" points="516.01,-198.5 516.01,-267.5 638.01,-267.5 638.01,-198.5 516.01,-198.5"/>
<text text-anchor="middle" x="541.51" y="-252.3" font-family="Times,serif" font-size="14.00">ARST</text>
<polyline fill="none" stroke="black" points="516.01,-244.5 567.01,-244.5 "/>
<text text-anchor="middle" x="541.51" y="-229.3" font-family="Times,serif" font-size="14.00">CLK</text>
<polyline fill="none" stroke="black" points="516.01,-221.5 567.01,-221.5 "/>
<text text-anchor="middle" x="541.51" y="-206.3" font-family="Times,serif" font-size="14.00">D</text>
<polyline fill="none" stroke="black" points="567.01,-198.5 567.01,-267.5 "/>
<text text-anchor="middle" x="589.51" y="-236.8" font-family="Times,serif" font-size="14.00">$10</text>
<text text-anchor="middle" x="589.51" y="-221.8" font-family="Times,serif" font-size="14.00">$adff</text>
<polyline fill="none" stroke="black" points="612.01,-198.5 612.01,-267.5 "/>
<text text-anchor="middle" x="625.01" y="-229.3" font-family="Times,serif" font-size="14.00">Q</text>
</g>
<!-- n7&#45;&gt;c13 -->
<g id="edge9" class="edge">
<title>n7:e&#45;&gt;c13:w</title>
<path fill="none" stroke="black" d="M458.01,-210C481.95,-210 487.12,-227.14 505.92,-231.83"/>
<polygon fill="black" stroke="black" points="505.67,-235.32 516.01,-233 506.48,-228.37 505.67,-235.32"/>
</g>
<!-- n8 -->
<g id="node4" class="node">
<title>n8</title>
<polygon fill="none" stroke="black" points="459.61,-294.54 459.61,-309.46 442.27,-320 417.75,-320 400.42,-309.46 400.42,-294.54 417.75,-284 442.27,-284 459.61,-294.54"/>
<text text-anchor="middle" x="430.01" y="-298.3" font-family="Times,serif" font-size="14.00">reset</text>
</g>
<!-- n8&#45;&gt;c13 -->
<g id="edge10" class="edge">
<title>n8:e&#45;&gt;c13:w</title>
<path fill="none" stroke="black" d="M461.01,-302C489.02,-302 485.67,-266.47 506.08,-257.86"/>
<polygon fill="black" stroke="black" points="506.83,-261.28 516.01,-256 505.54,-254.4 506.83,-261.28"/>
</g>
<!-- c13&#45;&gt;n5 -->
<g id="edge5" class="edge">
<title>c13:e&#45;&gt;n5:w</title>
<path fill="none" stroke="black" stroke-width="3" d="M639.01,-233C654.57,-233 649.17,-257.15 638.01,-268 599.13,-305.79 570.11,-271.63 516.01,-268 396.54,-259.98 366.61,-254.56 249.01,-232 196.82,-221.99 166.87,-243.96 133.01,-203 131.1,-200.68 129.35,-197.57 128.34,-194.59"/>
<polygon fill="black" stroke="black" stroke-width="3" points="131.7,-195.59 132.01,-185 125.17,-193.09 131.7,-195.59"/>
</g>
<!-- v0 -->
<g id="node6" class="node">
<title>v0</title>
<ellipse fill="none" stroke="black" cx="296.51" cy="-205" rx="34.39" ry="18"/>
<text text-anchor="middle" x="296.51" y="-201.3" font-family="Times,serif" font-size="14.00">4&#39;0000</text>
</g>
<!-- c18 -->
<g id="node7" class="node">
<title>c18</title>
<polygon fill="none" stroke="black" points="380.01,-104.5 380.01,-173.5 480.01,-173.5 480.01,-104.5 380.01,-104.5"/>
<text text-anchor="middle" x="393.01" y="-158.3" font-family="Times,serif" font-size="14.00">A</text>
<polyline fill="none" stroke="black" points="380.01,-150.5 406.01,-150.5 "/>
<text text-anchor="middle" x="393.01" y="-135.3" font-family="Times,serif" font-size="14.00">B</text>
<polyline fill="none" stroke="black" points="380.01,-127.5 406.01,-127.5 "/>
<text text-anchor="middle" x="393.01" y="-112.3" font-family="Times,serif" font-size="14.00">S</text>
<polyline fill="none" stroke="black" points="406.01,-104.5 406.01,-173.5 "/>
<text text-anchor="middle" x="430.01" y="-142.8" font-family="Times,serif" font-size="14.00">$6</text>
<text text-anchor="middle" x="430.01" y="-127.8" font-family="Times,serif" font-size="14.00">$mux</text>
<polyline fill="none" stroke="black" points="454.01,-104.5 454.01,-173.5 "/>
<text text-anchor="middle" x="467.01" y="-135.3" font-family="Times,serif" font-size="14.00">Y</text>
</g>
<!-- v0&#45;&gt;c18 -->
<g id="edge11" class="edge">
<title>v0:e&#45;&gt;c18:w</title>
<path fill="none" stroke="black" stroke-width="3" d="M332.51,-205C356.98,-205 353.44,-173.24 370.04,-164.31"/>
<polygon fill="black" stroke="black" stroke-width="3" points="371.06,-167.67 380.01,-162 369.48,-160.85 371.06,-167.67"/>
</g>
<!-- c18&#45;&gt;c13 -->
<g id="edge4" class="edge">
<title>c18:e&#45;&gt;c13:w</title>
<path fill="none" stroke="black" stroke-width="3" d="M480.01,-139C511.25,-139 487.82,-194.33 506.24,-207.3"/>
<polygon fill="black" stroke="black" stroke-width="3" points="505.44,-210.71 516.01,-210 507.3,-203.97 505.44,-210.71"/>
</g>
<!-- v1 -->
<g id="node8" class="node">
<title>v1</title>
<ellipse fill="none" stroke="black" cx="166.01" cy="-131" rx="34.39" ry="18"/>
<text text-anchor="middle" x="166.01" y="-127.3" font-family="Times,serif" font-size="14.00">4&#39;0001</text>
</g>
<!-- v1&#45;&gt;c19 -->
<g id="edge12" class="edge">
<title>v1:e&#45;&gt;c19:w</title>
<path fill="none" stroke="black" stroke-width="3" d="M202.01,-131C219,-131 225.61,-132.32 238.7,-132.82"/>
<polygon fill="black" stroke="black" stroke-width="3" points="238.95,-136.32 249.01,-133 239.08,-129.32 238.95,-136.32"/>
</g>
<!-- c19&#45;&gt;c18 -->
<g id="edge1" class="edge">
<title>c19:e&#45;&gt;c18:w</title>
<path fill="none" stroke="black" stroke-width="3" d="M344.01,-145C356.18,-145 361.22,-141.62 369.83,-139.94"/>
<polygon fill="black" stroke="black" stroke-width="3" points="370.37,-143.4 380.01,-139 369.73,-136.43 370.37,-143.4"/>
</g>
<!-- c20&#45;&gt;c18 -->
<g id="edge2" class="edge">
<title>c20:e&#45;&gt;c18:w</title>
<path fill="none" stroke="black" d="M339.51,-80C359.46,-80 357.63,-104.69 370.09,-113.18"/>
<polygon fill="black" stroke="black" points="369.44,-116.63 380.01,-116 371.35,-109.9 369.44,-116.63"/>
</g>
<!-- v2 -->
<g id="node11" class="node">
<title>v2</title>
<ellipse fill="none" stroke="black" cx="41.51" cy="-41" rx="27" ry="18"/>
<text text-anchor="middle" x="41.51" y="-37.3" font-family="Times,serif" font-size="14.00">1</text>
</g>
<!-- v2&#45;&gt;c21 -->
<g id="edge13" class="edge">
<title>v2:e&#45;&gt;c21:w</title>
<path fill="none" stroke="black" stroke-width="3" d="M69.51,-41C88.55,-41 94.23,-51.29 108.69,-54.82"/>
<polygon fill="black" stroke="black" stroke-width="3" points="108.68,-58.34 119.01,-56 109.47,-51.39 108.68,-58.34"/>
</g>
<!-- c21&#45;&gt;c20 -->
<g id="edge3" class="edge">
<title>c21:e&#45;&gt;c20:w</title>
<path fill="none" stroke="black" stroke-width="3" d="M213.01,-68C227.07,-68 232.9,-68 243.35,-68"/>
<polygon fill="black" stroke="black" stroke-width="3" points="243.51,-71.5 253.51,-68 243.51,-64.5 243.51,-71.5"/>
</g>
</g>
</svg>
